<svg width="315" height="200" viewBox="0 0 315 200" fill="none" xmlns="http://www.w3.org/2000/svg">
<g filter="url(#filter0_i)">
<path d="M299.682 0.916504H14.5008C6.49221 0.916504 0 7.40871 0 15.4173V176.859C0 184.868 6.49221 191.36 14.5008 191.36H299.682C307.691 191.36 314.183 184.868 314.183 176.859V15.4173C314.183 7.40871 307.691 0.916504 299.682 0.916504Z" fill="#111827"/>
</g>
<g filter="url(#filter1_i)">
<path d="M299.682 0.916504H14.5008C6.49221 0.916504 0 7.40871 0 15.4173V176.859C0 184.868 6.49221 191.36 14.5008 191.36H299.682C307.691 191.36 314.183 184.868 314.183 176.859V15.4173C314.183 7.40871 307.691 0.916504 299.682 0.916504Z" fill="#111827"/>
</g>
<g style="mix-blend-mode:lighten">
<g style="mix-blend-mode:lighten">
<path d="M93.5 179.606C134.645 179.606 168 146.787 168 106.303C168 65.819 134.645 33 93.5 33C52.3548 33 19 65.819 19 106.303C19 146.787 52.3548 179.606 93.5 179.606Z" fill="#164E63"/>
</g>
</g>
<g style="mix-blend-mode:screen">
<g style="mix-blend-mode:screen">
<path d="M196.671 176.017C235.701 189.238 277.887 168.821 290.896 130.415C303.905 92.0095 282.81 50.1582 243.78 36.9377C204.75 23.7173 162.564 44.134 149.555 82.5398C136.546 120.946 157.64 162.797 196.671 176.017Z" fill="#134E4A"/>
</g>
</g>
<rect y="26" width="314" height="31" fill="#374151"/>
<rect x="19" y="81" width="276" height="31" rx="3" fill="#D1D5DB"/>
<path d="M19 84C19 82.3431 20.3431 81 22 81H247V112H22C20.3431 112 19 110.657 19 109V84Z" fill="#F9FAFB"/>
<path d="M224.012 127.721C224.012 128.475 223.738 129.062 223.191 129.484C222.645 129.906 221.902 130.117 220.965 130.117C219.949 130.117 219.168 129.986 218.621 129.725V128.764C218.973 128.912 219.355 129.029 219.77 129.115C220.184 129.201 220.594 129.244 221 129.244C221.664 129.244 222.164 129.119 222.5 128.869C222.836 128.615 223.004 128.264 223.004 127.814C223.004 127.518 222.943 127.275 222.822 127.088C222.705 126.896 222.506 126.721 222.225 126.561C221.947 126.4 221.523 126.219 220.953 126.016C220.156 125.73 219.586 125.393 219.242 125.002C218.902 124.611 218.732 124.102 218.732 123.473C218.732 122.812 218.98 122.287 219.477 121.896C219.973 121.506 220.629 121.311 221.445 121.311C222.297 121.311 223.08 121.467 223.795 121.779L223.484 122.646C222.777 122.35 222.09 122.201 221.422 122.201C220.895 122.201 220.482 122.314 220.186 122.541C219.889 122.768 219.74 123.082 219.74 123.484C219.74 123.781 219.795 124.025 219.904 124.217C220.014 124.404 220.197 124.578 220.455 124.738C220.717 124.895 221.115 125.068 221.65 125.26C222.549 125.58 223.166 125.924 223.502 126.291C223.842 126.658 224.012 127.135 224.012 127.721ZM228.33 130.117C227.381 130.117 226.631 129.828 226.08 129.25C225.533 128.672 225.26 127.869 225.26 126.842C225.26 125.807 225.514 124.984 226.021 124.375C226.533 123.766 227.219 123.461 228.078 123.461C228.883 123.461 229.52 123.727 229.988 124.258C230.457 124.785 230.691 125.482 230.691 126.35V126.965H226.268C226.287 127.719 226.477 128.291 226.836 128.682C227.199 129.072 227.709 129.268 228.365 129.268C229.057 129.268 229.74 129.123 230.416 128.834V129.701C230.072 129.85 229.746 129.955 229.438 130.018C229.133 130.084 228.764 130.117 228.33 130.117ZM228.066 124.275C227.551 124.275 227.139 124.443 226.83 124.779C226.525 125.115 226.346 125.58 226.291 126.174H229.648C229.648 125.561 229.512 125.092 229.238 124.768C228.965 124.439 228.574 124.275 228.066 124.275ZM234.922 130.117C233.992 130.117 233.271 129.832 232.76 129.262C232.252 128.688 231.998 127.877 231.998 126.83C231.998 125.756 232.256 124.926 232.771 124.34C233.291 123.754 234.029 123.461 234.986 123.461C235.295 123.461 235.604 123.494 235.912 123.561C236.221 123.627 236.463 123.705 236.639 123.795L236.34 124.621C236.125 124.535 235.891 124.465 235.637 124.41C235.383 124.352 235.158 124.322 234.963 124.322C233.658 124.322 233.006 125.154 233.006 126.818C233.006 127.607 233.164 128.213 233.48 128.635C233.801 129.057 234.273 129.268 234.898 129.268C235.434 129.268 235.982 129.152 236.545 128.922V129.783C236.115 130.006 235.574 130.117 234.922 130.117ZM238.988 123.578V127.744C238.988 128.268 239.107 128.658 239.346 128.916C239.584 129.174 239.957 129.303 240.465 129.303C241.137 129.303 241.627 129.119 241.936 128.752C242.248 128.385 242.404 127.785 242.404 126.953V123.578H243.377V130H242.574L242.434 129.139H242.381C242.182 129.455 241.904 129.697 241.549 129.865C241.197 130.033 240.795 130.117 240.342 130.117C239.561 130.117 238.975 129.932 238.584 129.561C238.197 129.189 238.004 128.596 238.004 127.779V123.578H238.988ZM248.375 123.461C248.66 123.461 248.916 123.484 249.143 123.531L249.008 124.434C248.742 124.375 248.508 124.346 248.305 124.346C247.785 124.346 247.34 124.557 246.969 124.979C246.602 125.4 246.418 125.926 246.418 126.555V130H245.445V123.578H246.248L246.359 124.768H246.406C246.645 124.35 246.932 124.027 247.268 123.801C247.604 123.574 247.973 123.461 248.375 123.461ZM251.316 130H250.344V123.578H251.316V130ZM250.262 121.838C250.262 121.615 250.316 121.453 250.426 121.352C250.535 121.246 250.672 121.193 250.836 121.193C250.992 121.193 251.127 121.246 251.24 121.352C251.354 121.457 251.41 121.619 251.41 121.838C251.41 122.057 251.354 122.221 251.24 122.33C251.127 122.436 250.992 122.488 250.836 122.488C250.672 122.488 250.535 122.436 250.426 122.33C250.316 122.221 250.262 122.057 250.262 121.838ZM255.453 129.314C255.625 129.314 255.791 129.303 255.951 129.279C256.111 129.252 256.238 129.225 256.332 129.197V129.941C256.227 129.992 256.07 130.033 255.863 130.064C255.66 130.1 255.477 130.117 255.312 130.117C254.07 130.117 253.449 129.463 253.449 128.154V124.334H252.529V123.865L253.449 123.461L253.859 122.09H254.422V123.578H256.285V124.334H254.422V128.113C254.422 128.5 254.514 128.797 254.697 129.004C254.881 129.211 255.133 129.314 255.453 129.314ZM256.602 123.578H257.645L259.051 127.24C259.359 128.076 259.551 128.68 259.625 129.051H259.672C259.723 128.852 259.828 128.512 259.988 128.031C260.152 127.547 260.684 126.062 261.582 123.578H262.625L259.865 130.891C259.592 131.613 259.271 132.125 258.904 132.426C258.541 132.73 258.094 132.883 257.562 132.883C257.266 132.883 256.973 132.85 256.684 132.783V132.004C256.898 132.051 257.139 132.074 257.404 132.074C258.072 132.074 258.549 131.699 258.834 130.949L259.191 130.035L256.602 123.578ZM270.6 122.201C269.658 122.201 268.914 122.516 268.367 123.145C267.824 123.77 267.553 124.627 267.553 125.717C267.553 126.838 267.814 127.705 268.338 128.318C268.865 128.928 269.615 129.232 270.588 129.232C271.186 129.232 271.867 129.125 272.633 128.91V129.783C272.039 130.006 271.307 130.117 270.436 130.117C269.174 130.117 268.199 129.734 267.512 128.969C266.828 128.203 266.486 127.115 266.486 125.705C266.486 124.822 266.65 124.049 266.979 123.385C267.311 122.721 267.787 122.209 268.408 121.85C269.033 121.49 269.768 121.311 270.611 121.311C271.51 121.311 272.295 121.475 272.967 121.803L272.545 122.658C271.896 122.354 271.248 122.201 270.6 122.201ZM279.898 126.783C279.898 127.83 279.635 128.648 279.107 129.238C278.58 129.824 277.852 130.117 276.922 130.117C276.348 130.117 275.838 129.982 275.393 129.713C274.947 129.443 274.604 129.057 274.361 128.553C274.119 128.049 273.998 127.459 273.998 126.783C273.998 125.736 274.26 124.922 274.783 124.34C275.307 123.754 276.033 123.461 276.963 123.461C277.861 123.461 278.574 123.76 279.102 124.357C279.633 124.955 279.898 125.764 279.898 126.783ZM275.006 126.783C275.006 127.604 275.17 128.229 275.498 128.658C275.826 129.088 276.309 129.303 276.945 129.303C277.582 129.303 278.064 129.09 278.393 128.664C278.725 128.234 278.891 127.607 278.891 126.783C278.891 125.967 278.725 125.348 278.393 124.926C278.064 124.5 277.578 124.287 276.934 124.287C276.297 124.287 275.816 124.496 275.492 124.914C275.168 125.332 275.006 125.955 275.006 126.783ZM285.98 129.139H285.928C285.479 129.791 284.807 130.117 283.912 130.117C283.072 130.117 282.418 129.83 281.949 129.256C281.484 128.682 281.252 127.865 281.252 126.807C281.252 125.748 281.486 124.926 281.955 124.34C282.424 123.754 283.076 123.461 283.912 123.461C284.783 123.461 285.451 123.777 285.916 124.41H285.992L285.951 123.947L285.928 123.496V120.883H286.9V130H286.109L285.98 129.139ZM284.035 129.303C284.699 129.303 285.18 129.123 285.477 128.764C285.777 128.4 285.928 127.816 285.928 127.012V126.807C285.928 125.896 285.775 125.248 285.471 124.861C285.17 124.471 284.688 124.275 284.023 124.275C283.453 124.275 283.016 124.498 282.711 124.943C282.41 125.385 282.26 126.01 282.26 126.818C282.26 127.639 282.41 128.258 282.711 128.676C283.012 129.094 283.453 129.303 284.035 129.303ZM291.682 130.117C290.732 130.117 289.982 129.828 289.432 129.25C288.885 128.672 288.611 127.869 288.611 126.842C288.611 125.807 288.865 124.984 289.373 124.375C289.885 123.766 290.57 123.461 291.43 123.461C292.234 123.461 292.871 123.727 293.34 124.258C293.809 124.785 294.043 125.482 294.043 126.35V126.965H289.619C289.639 127.719 289.828 128.291 290.188 128.682C290.551 129.072 291.061 129.268 291.717 129.268C292.408 129.268 293.092 129.123 293.768 128.834V129.701C293.424 129.85 293.098 129.955 292.789 130.018C292.484 130.084 292.115 130.117 291.682 130.117ZM291.418 124.275C290.902 124.275 290.49 124.443 290.182 124.779C289.877 125.115 289.697 125.58 289.643 126.174H293C293 125.561 292.863 125.092 292.59 124.768C292.316 124.439 291.926 124.275 291.418 124.275Z" fill="#F9FAFB"/>
<line x1="19" y1="91.5" x2="247" y2="91.5" stroke="#4B5563" stroke-width="5"/>
<line x1="19" y1="103.5" x2="247" y2="103.5" stroke="#4B5563" stroke-width="5"/>
<line x1="19" y1="142.5" x2="107" y2="142.5" stroke="#4B5563" stroke-width="9"/>
<line x1="19" y1="157.5" x2="86" y2="157.5" stroke="#4B5563" stroke-width="9"/>
<path d="M262.852 99.5078H261.312V102H259.523V99.5078H254.305V98.0938L259.523 90.5469H261.312V97.9844H262.852V99.5078ZM259.523 97.9844V95.1172C259.523 94.0964 259.549 93.2604 259.602 92.6094H259.539C259.393 92.9531 259.164 93.3698 258.852 93.8594L256.016 97.9844H259.523ZM269.159 94.8672C270.31 94.8672 271.221 95.1719 271.893 95.7812C272.565 96.3906 272.901 97.2214 272.901 98.2734C272.901 99.4922 272.518 100.445 271.753 101.133C270.992 101.815 269.909 102.156 268.503 102.156C267.226 102.156 266.224 101.951 265.495 101.539V99.875C265.917 100.115 266.401 100.299 266.948 100.43C267.495 100.56 268.003 100.625 268.471 100.625C269.299 100.625 269.93 100.44 270.362 100.07C270.794 99.7005 271.01 99.1589 271.01 98.4453C271.01 97.0807 270.141 96.3984 268.401 96.3984C268.156 96.3984 267.854 96.4245 267.495 96.4766C267.135 96.5234 266.82 96.5781 266.549 96.6406L265.729 96.1562L266.167 90.5781H272.104V92.2109H267.784L267.526 95.0391C267.708 95.0078 267.93 94.9714 268.19 94.9297C268.456 94.888 268.779 94.8672 269.159 94.8672ZM279.739 94.8672C280.89 94.8672 281.802 95.1719 282.474 95.7812C283.146 96.3906 283.482 97.2214 283.482 98.2734C283.482 99.4922 283.099 100.445 282.333 101.133C281.573 101.815 280.489 102.156 279.083 102.156C277.807 102.156 276.804 101.951 276.075 101.539V99.875C276.497 100.115 276.982 100.299 277.528 100.43C278.075 100.56 278.583 100.625 279.052 100.625C279.88 100.625 280.51 100.44 280.943 100.07C281.375 99.7005 281.591 99.1589 281.591 98.4453C281.591 97.0807 280.721 96.3984 278.982 96.3984C278.737 96.3984 278.435 96.4245 278.075 96.4766C277.716 96.5234 277.401 96.5781 277.13 96.6406L276.31 96.1562L276.747 90.5781H282.685V92.2109H278.364L278.107 95.0391C278.289 95.0078 278.51 94.9714 278.771 94.9297C279.036 94.888 279.359 94.8672 279.739 94.8672Z" fill="black"/>
<defs>
<filter id="filter0_i" x="0" y="0.916504" width="314.183" height="192.443" filterUnits="userSpaceOnUse" color-interpolation-filters="sRGB">
<feFlood flood-opacity="0" result="BackgroundImageFix"/>
<feBlend mode="normal" in="SourceGraphic" in2="BackgroundImageFix" result="shape"/>
<feColorMatrix in="SourceAlpha" type="matrix" values="0 0 0 0 0 0 0 0 0 0 0 0 0 0 0 0 0 0 127 0" result="hardAlpha"/>
<feOffset dy="2"/>
<feGaussianBlur stdDeviation="1"/>
<feComposite in2="hardAlpha" operator="arithmetic" k2="-1" k3="1"/>
<feColorMatrix type="matrix" values="0 0 0 0 0 0 0 0 0 0 0 0 0 0 0 0 0 0 0.25 0"/>
<feBlend mode="normal" in2="shape" result="effect1_innerShadow"/>
</filter>
<filter id="filter1_i" x="0" y="0.916504" width="314.183" height="192.443" filterUnits="userSpaceOnUse" color-interpolation-filters="sRGB">
<feFlood flood-opacity="0" result="BackgroundImageFix"/>
<feBlend mode="normal" in="SourceGraphic" in2="BackgroundImageFix" result="shape"/>
<feColorMatrix in="SourceAlpha" type="matrix" values="0 0 0 0 0 0 0 0 0 0 0 0 0 0 0 0 0 0 127 0" result="hardAlpha"/>
<feOffset dy="2"/>
<feGaussianBlur stdDeviation="1"/>
<feComposite in2="hardAlpha" operator="arithmetic" k2="-1" k3="1"/>
<feColorMatrix type="matrix" values="0 0 0 0 0 0 0 0 0 0 0 0 0 0 0 0 0 0 0.25 0"/>
<feBlend mode="normal" in2="shape" result="effect1_innerShadow"/>
</filter>
</defs>
</svg>
